<svg fill="none" height="24" viewBox="0 0 24 24" width="24" xmlns="http://www.w3.org/2000/svg"><g fill="#fff"><path d="m16.4436 9.9488c-.5878.0778-1.0727.3685-1.5292.7187-.5089.3901-.9359.8669-1.3756 1.33-.059.0623-.0332.095.0105.1429.3089.3461.6281.6823.9895.9737.6005.4834 1.2509.8552 2.043.9286.8925.0835 1.6153-.3342 1.9345-1.1429.1107-.2799.1569-.5719.1586-.9139.0034-.0854-.0111-.2109-.0265-.3373-.1405-1.1221-1.0857-1.84785-2.2048-1.6998z"/><path d="m9.08549 10.6655c-.45643-.3501-.94159-.6406-1.52913-.71866-1.11959-.14805-2.06437.57796-2.20505 1.69976-.01547.1262-.0302.2519-.02652.3371.00172.3423.04763.634.15861.9141.31918.8088 1.042 1.2264 1.93424 1.1432.79255-.0735 1.4427-.4454 2.0435-.9289.36166-.2916.68036-.6278.98926-.9735.0434-.0481.0697-.0807.0108-.1429-.44-.463-.86699-.9401-1.37571-1.3302z"/><path d="m12 0c-6.62719 0-12 5.37281-12 12 0 6.6272 5.37281 12 12 12 6.6272 0 12-5.3728 12-12 0-6.62719-5.3728-12-12-12zm4.6871 16.5181c-1.1432-.0135-2.1192-.4559-3.0097-1.1316-.5816-.4412-1.0798-.9705-1.5595-1.5171-.0725-.0827-.1123-.1227-.1901-.0567-.0125.0162-.0265.0346-.0461.0567-.4793.5466-.9775 1.0759-1.5594 1.5171-.89048.6757-1.86644 1.1189-3.0096 1.1316-1.87704.0224-3.34552-.9845-3.97995-2.7486-.343-.9548-.40536-1.9335-.20133-2.9235.4854-2.35405 2.39116-3.59591 4.67183-3.32903.92293.10803 1.71843.51659 2.44025 1.08301.6261.4908 1.1329 1.09823 1.6418 1.70202.0204.0243.0374.0427.0538.0572.002.0014.0044.0044.0061.0056.0123.0106.0236.0147.0344.0189.0067.0022.0138.0057.0202.0052.0061.0005.0132-.0032.0201-.0052.0108-.0044.0218-.0083.0344-.0189.0019-.0015.0044-.0044.0061-.0061.0162-.0143.0334-.0327.0538-.0567.5087-.60379 1.0157-1.21122 1.642-1.70202.7216-.56642 1.5176-.97498 2.4401-1.08301 2.2806-.26688 4.1871.97498 4.672 3.32903.2043.99.1417 1.9689-.2013 2.9235-.6344 1.7648-2.1036 2.771-3.9799 2.7486z"/></g></svg>