<svg fill="none" height="24" viewBox="0 0 19 24" width="19" xmlns="http://www.w3.org/2000/svg"><path d="m3.46863 16.298c-.31642-.6912-.3359-.8908.36023-1.1245 1.2462-.3894.38944.4479 2.10297 2.3951h.0146v-4.5711c.05842-2.4437 2.14192-4.48825 4.75607-4.48825 2.6238 0 4.756 2.11755 4.756 4.71225 0 3.0863-2.9597 5.5105-6.25538 4.5418-.51114-.2045-.10223-1.5432.41378-1.3922 2.58 0 4.352-.4917 4.352-3.135 0-2.9695-3.7532-4.36175-5.6907-2.1712-1.14398 1.2852-.85676 2.0495-.85676 7.672 2.46807 1.5091 5.75886 1.071 7.80826-.9785 1.2073-1.2072 1.8742-2.8234 1.8742-4.5272 0-1.7135-.6718-3.31997-1.8888-4.54183-1.2073-1.20727-2.8137-1.87418-4.5418-1.87418-1.72818 0-3.34922.67178-4.55162 1.87418-.0146.0146-.77888.80321-1.03201 1.16345l-.02434.0292c-.16065.22878-.30669.44298-.97847.29698-.33589-.0828-.69612-.28237-.69612-.57445v-9.093411c0-.243399.18985-.511139.51114-.511139h11.74642c.4041 0 .4041.564687.4041.735067 0 .189851 0 .735063-.4041.735063h-10.86532v6.46956h.01461c5.07245-5.34505 13.76671-1.75247 13.76671 5.30121 0 8.6699-11.91687 10.7242-15.09567 3.0571zm3.08144-12.69569c-.02434.20446.22392 1.19266.71072 1.00281 6.07521-2.3123 9.87231 1.96667 10.19361 1.96667.2336 0 1.1099-.7448.6961-1.1099-4.537-4.33252-11.41545-2.77476-11.60043-1.85958zm11.02113 16.12279c-5.3548 5.3499-14.5553 2.9597-16.16173-5.0724 0-.5939-1.4798739-.3603-1.40685401.1606 1.16831401 8.4411 11.97528401 12.5059 18.57628401 5.9049.3359-.3797-.6134-1.3825-1.0077-.9931zm-8.73318-5.2623c0 .1947.20932.3554.26774.4138.14604.146.29695.2142.41378.2142.18498 0 .12657.0097 1.08556-.9493.9541.9395.9298.9493 1.0856.9493.2628 0 .9005-.5063.5208-.886l-.8421-.8422.886-.8859c.3066-.3311-.4917-1.0613-.7887-.7643l-.8713.8714c-.90548-.9152-.89574-.9493-1.04665-.9493-.2434 0-.87624.5696-.60363.8422l.88597.8859c-.88111.8714-.99307.9347-.99307 1.1002z" fill="#fff"/></svg>