<svg fill="none" height="283" viewBox="0 0 57 283" width="57" xmlns="http://www.w3.org/2000/svg"><path d="m29.952 36.864v53.568c0 7.104-.48 14.112-1.44 21.024s-2.784 13.056-5.472 18.432c-2.496 5.184-6.144 8.928-10.944 11.232 4.8 2.304 8.448 6.144 10.944 11.52 2.688 5.184 4.512 11.232 5.472 18.144s1.44 13.92 1.44 21.024v53.568c0 7.68 1.344 13.536 4.032 17.568 2.88 4.032 7.488 6.048 13.824 6.048h8.352v13.248h-12.672c-8.064 0-14.88-3.168-20.448-9.504-5.376-6.336-8.064-16.608-8.064-30.816v-60.48c0-10.944-1.44-19.104-4.32-24.48-2.688-5.376-6.24-8.736-10.656-10.08v-11.52c4.416-1.536 7.968-4.896 10.656-10.08 2.88-5.376 4.32-13.536 4.32-24.48v-60.48c0-14.208 2.688-24.48 8.064-30.816 5.568-6.336 12.384-9.504 20.448-9.504h12.672v13.248h-8.352c-6.336 0-10.944 2.016-13.824 6.048-2.688 3.84-4.032 9.696-4.032 17.568z" fill="#464550"/></svg>