<svg fill="none" height="24" viewBox="0 0 25 24" width="25" xmlns="http://www.w3.org/2000/svg"><path d="m8.23312 19.3248c0 .0992-.11414.1786-.25806.1786-.16377.0149-.27791-.0645-.27791-.1786 0-.0993.11414-.1787.25806-.1787.14888-.0149.27791.0645.27791.1787zm-1.5434-.2234c-.03474.0993.06452.2134.2134.2432.12903.0496.27791 0 .30769-.0992.02977-.0993-.06452-.2134-.2134-.2581-.12903-.0347-.27295.0149-.30769.1141zm2.19352-.0843c-.14392.0347-.24317.129-.22829.2432.01489.0992.14392.1637.2928.129.14392-.0348.24318-.129.22829-.2283-.01489-.0943-.14888-.1588-.2928-.1439zm3.26546-19.0171c-6.88327 0-12.1487 5.22573-12.1487 12.109 0 5.5036 3.46397 10.2132 8.41178 11.8708.63523.1141.85855-.2779.85855-.6005 0-.3077-.01489-2.0049-.01489-3.0471 0 0-3.47389.7444-4.20341-1.4789 0 0-.56575-1.4441-1.37963-1.8163 0 0-1.13646-.7792.0794-.7643 0 0 1.23572.0993 1.91561 1.2804 1.08683 1.9156 2.90814 1.3647 3.61781 1.0372.11414-.794.43672-1.3449.79398-1.6724-2.7741-.3077-5.57307-.7097-5.57307-5.4838 0-1.3648.37717-2.04963 1.1712-2.92306-.12903-.32258-.55086-1.65258.12903-3.36968 1.03721-.32258 3.42427 1.33993 3.42427 1.33993.99257-.27791 2.05947-.42183 3.11657-.42183s2.124.14392 3.1166.42183c0 0 2.387-1.66747 3.4242-1.33993.6799 1.72206.2581 3.0471.1291 3.36968.794.87839 1.2804 1.56326 1.2804 2.92306 0 4.789-2.9231 5.1711-5.6972 5.4838.4565.392.8436 1.1364.8436 2.3026 0 1.6725-.0149 3.7419-.0149 4.1489 0 .3225.2283.7146.8586.6005 4.9627-1.6477 8.3274-6.3573 8.3274-11.8609 0-6.88327-5.583-12.109-12.4663-12.109zm-7.32495 17.1164c-.06452.0496-.04963.1637.03474.258.0794.0794.19354.1142.25806.0496.06451-.0496.04962-.1637-.03474-.258-.07941-.0794-.19355-.1142-.25806-.0496zm-.53597-.402c-.03474.0645.01488.1439.11414.1935.0794.0497.17865.0348.21339-.0347.03474-.0645-.01488-.1439-.11414-.1936-.09925-.0297-.17866-.0148-.21339.0348zm1.60791 1.7667c-.0794.0645-.04963.2134.06452.3077.11414.1141.25806.129.32257.0496.06452-.0645.03474-.2134-.06451-.3077-.10918-.1141-.25806-.129-.32258-.0496zm-.56575-.7295c-.0794.0496-.0794.1786 0 .2928.07941.1141.2134.1638.27791.1141.07941-.0645.07941-.1935 0-.3077-.06947-.1141-.1985-.1637-.27791-.0992z" fill="#fff"/></svg>