<svg fill="none" height="40" viewBox="0 0 40 40" width="40" xmlns="http://www.w3.org/2000/svg"><circle fill="#000" fill-opacity=".5" r="20" transform="matrix(1 .00000017 .00000017 -1 20 20)"/><path d="m19.9655 16.0007c-.2731.0058-.5342.1033-.7326.2735l-6.896 6.0018c-.2104.1847-.3315.4375-.3367.703s.1059.522.3089.7133c.2031.1914.4816.3019.7744.3074.2928.0056.5761-.0944.7877-.2779l6.1288-5.3375 6.1288 5.3375c.2116.1835.4949.2835.7877.278.2928-.0056.5713-.1161.7744-.3075.203-.1913.3141-.4478.3089-.7133s-.1263-.5183-.3367-.703l-6.8959-6.0018c-.1068-.0917-.2327-.1632-.3704-.2101-.1377-.047-.2843-.0685-.4313-.0634z" fill="#fff"/></svg>