<svg width="30" height="25" viewBox="0 0 30 25" fill="none" xmlns="http://www.w3.org/2000/svg">
<path d="M30 6.16101V16.5819H24.6791V6.7243C24.6791 5.76201 24.5158 5.03442 24.189 4.54154C23.8857 4.02519 23.3722 3.76702 22.6488 3.76702C21.9487 3.76702 21.3769 4.01346 20.9335 4.50634C20.4901 4.99922 20.2684 5.73854 20.2684 6.7243V16.5819H14.9475V6.7243C14.9475 5.76201 14.7842 5.03442 14.4574 4.54154C14.1541 4.02519 13.6406 3.76702 12.9172 3.76702C12.2171 3.76702 11.6453 4.01346 11.2019 4.50634C10.7585 4.99922 10.5368 5.73854 10.5368 6.7243V16.5819H5.42597V0.387264H10.5368V2.78125C11.0035 1.88938 11.622 1.20873 12.3921 0.739321C13.1622 0.24644 14.0957 0 15.1926 0C16.4528 0 17.4563 0.22297 18.2031 0.668909C18.9732 1.11485 19.5099 1.78376 19.8133 2.67564C20.3968 1.8307 21.1202 1.17352 21.9837 0.704114C22.8472 0.234705 23.8273 0 24.9242 0C26.7911 0 28.098 0.539822 28.8448 1.61946C29.6149 2.69911 30 4.21296 30 6.16101Z" fill="white"/>
<path d="M2.13535 19.2967C2.34538 19.5548 2.57876 19.7661 2.83547 19.9304C3.09217 20.0947 3.39556 20.1768 3.74561 20.1768C4.8658 20.1768 5.42589 19.3788 5.42589 17.7828V0.391177H10.5367V19.1206C10.5367 20.8809 10.0233 22.3009 8.99648 23.3805C7.96964 24.4602 6.45273 25 4.44573 25C3.27887 25 2.34538 24.8005 1.64527 24.4015C0.945155 24.0025 0.396732 23.6035 0 23.2045L2.13535 19.2967Z" fill="white"/>
</svg>
